<svg width="14" height="14" viewBox="0 0 14 14" fill="none" xmlns="http://www.w3.org/2000/svg">
<rect width="14" height="14" fill="white"/>
<g clip-path="url(#clip0_332_4)">
<path d="M9.97275 10.397C7.45725 12.4009 4.38748 11.5481 2.98051 9.71481C1.48826 7.75357 1.70144 5.02489 3.49213 3.27682C5.2402 1.61403 8.01151 1.52876 9.93012 3.14892C11.7208 4.6838 12.3177 7.62566 10.4844 9.88535C11.3371 10.6954 12.1472 11.5481 13.0425 12.4009C12.8293 12.5714 12.6162 12.7419 12.4456 12.8698C11.6782 12.0598 10.8681 11.2497 10.0154 10.397H9.97275ZM6.77508 2.72256C4.51539 2.72256 2.68206 4.55589 2.68206 6.81558C2.68206 9.03264 4.51539 10.9086 6.77508 10.9086C8.99213 10.9086 10.8255 9.07527 10.8255 6.81558C10.8255 4.59853 8.99213 2.72256 6.73244 2.72256H6.77508Z" fill="#343434"/>
</g>
<defs>
<clipPath id="clip0_332_4">
<rect width="11" height="10.8721" fill="white" transform="translate(2 2)"/>
</clipPath>
</defs>
</svg>
